<svg width="218" height="140" viewBox="0 0 218 140" fill="none" xmlns="http://www.w3.org/2000/svg">
<rect width="218" height="140" fill="#E7E7E7"/>
<path fill-rule="evenodd" clip-rule="evenodd" d="M86 51.6H132V88.4H86V51.6ZM88.3 76.3252V86.1H113.72L100.679 67.0407L88.3 76.3252ZM88.3 73.4502L101.221 63.7594L116.507 86.1H129.7V53.9H88.3V73.4502ZM113.6 68.85C113.6 72.0256 116.174 74.6 119.35 74.6C122.526 74.6 125.1 72.0256 125.1 68.85C125.1 65.6744 122.526 63.1 119.35 63.1C116.174 63.1 113.6 65.6744 113.6 68.85ZM119.35 72.3C121.255 72.3 122.8 70.7554 122.8 68.85C122.8 66.9446 121.255 65.4 119.35 65.4C117.445 65.4 115.9 66.9446 115.9 68.85C115.9 70.7554 117.445 72.3 119.35 72.3Z" fill="#CCCCCC"/>
</svg>
